<svg width="104" height="110" viewBox="0 0 104 110" fill="none" xmlns="http://www.w3.org/2000/svg">
<path d="M79.7281 96.3703C79.7303 92.6198 79.0337 88.9057 77.6782 85.44C76.3227 81.9744 74.3349 78.8252 71.8283 76.1724C69.3217 73.5196 66.3455 71.4152 63.0697 69.9794C59.7939 68.5437 56.2828 67.8047 52.7369 67.8047C49.191 67.8047 45.6798 68.5437 42.404 69.9794C39.1282 71.4152 36.152 73.5196 33.6454 76.1724C31.1388 78.8252 29.151 81.9744 27.7955 85.44C26.44 88.9057 25.7435 92.6198 25.7456 96.3703H79.7281Z" stroke="black" stroke-width="2"/>
<path d="M64.7781 48.1252C64.7762 49.9746 64.4263 51.8052 63.7489 53.5103C63.0714 55.2153 62.08 56.7607 60.8322 58.0565C59.5845 59.3522 58.1054 60.3723 56.4812 61.0574C54.857 61.7426 53.1202 62.079 51.3718 62.047C47.8716 61.8996 44.5638 60.3142 42.1514 57.6278C39.739 54.9415 38.4122 51.3659 38.4531 47.6611V28.2736C38.4527 28.249 38.4608 28.225 38.4757 28.2061C38.4906 28.1872 38.5114 28.1746 38.5343 28.1705C42.9834 27.4564 47.4735 27.0659 51.9731 27.0017C56.2787 27.0629 60.5745 27.4535 64.8268 28.1705C64.8527 28.1705 64.8775 28.1813 64.8958 28.2007C64.914 28.22 64.9243 28.2462 64.9243 28.2736L64.7781 48.1252Z" stroke="black" stroke-width="2"/>
<path d="M38.4529 34.6157L25.0142 28.0845C24.9974 28.0717 24.9837 28.055 24.9743 28.0355C24.9649 28.0161 24.96 27.9946 24.96 27.9728C24.96 27.9509 24.9649 27.9294 24.9743 27.91C24.9837 27.8905 24.9974 27.8738 25.0142 27.861L51.6317 14.4204H51.7292L78.2654 27.7235C78.2822 27.7342 78.2962 27.7493 78.3058 27.7674C78.3155 27.7855 78.3206 27.8059 78.3206 27.8267C78.3206 27.8474 78.3155 27.8678 78.3058 27.8859C78.2962 27.904 78.2822 27.9191 78.2654 27.9298L64.9242 34.6157" stroke="black" stroke-width="2"/>
<path d="M38.4531 41.8516H34.6831C34.6831 41.8516 31.4331 41.8516 31.4331 47.1797C31.4331 52.0953 34.6831 52.0953 34.6831 52.0953H39.1031" stroke="black" stroke-width="2"/>
<path d="M64.7781 42.4705H68.5481C68.5481 42.4705 71.7981 42.4705 71.7981 47.7814C71.7981 52.697 68.5481 52.697 68.5481 52.697H64.1118" stroke="black" stroke-width="2"/>
<path d="M76.8677 56.9766V28.7375" stroke="black" stroke-width="2"/>
<path d="M76.868 64.2984C78.7796 64.2984 80.3292 62.6594 80.3292 60.6375C80.3292 58.6156 78.7796 56.9766 76.868 56.9766C74.9564 56.9766 73.4067 58.6156 73.4067 60.6375C73.4067 62.6594 74.9564 64.2984 76.868 64.2984Z" stroke="black" stroke-width="2"/>
<path d="M64.9239 39.5314C60.6618 38.7123 56.3369 38.3153 52.0051 38.3454C47.4612 38.249 42.9198 38.6464 38.4526 39.5314" stroke="black" stroke-width="2"/>
</svg>
