<svg width="64" height="64" viewBox="0 0 64 64" fill="none" xmlns="http://www.w3.org/2000/svg">
<circle cx="32" cy="32" r="32" fill="#BB86FC"/>
<path d="M48.3494 30.4745C48.123 30.7017 47.8539 30.882 47.5576 31.0051C47.2613 31.1281 46.9437 31.1914 46.6229 31.1914C46.3021 31.1914 45.9844 31.1281 45.6881 31.0051C45.3919 30.882 45.1228 30.7017 44.8963 30.4745L34.4374 20.0156V49.875C34.4374 50.5214 34.1806 51.1414 33.7235 51.5985C33.2664 52.0556 32.6464 52.3125 31.9999 52.3125C31.3534 52.3125 30.7335 52.0556 30.2763 51.5985C29.8192 51.1414 29.5624 50.5214 29.5624 49.875V20.0156L19.0994 30.4745C18.6415 30.9324 18.0205 31.1897 17.3729 31.1897C16.7253 31.1897 16.1042 30.9324 15.6463 30.4745C15.1884 30.0166 14.9312 29.3955 14.9312 28.7479C14.9312 28.1003 15.1884 27.4793 15.6463 27.0214L30.2713 12.3964C30.4978 12.1691 30.7669 11.9888 31.0631 11.8658C31.3594 11.7428 31.6771 11.6794 31.9979 11.6794C32.3187 11.6794 32.6363 11.7428 32.9326 11.8658C33.2289 11.9888 33.498 12.1691 33.7244 12.3964L48.3494 27.0214C48.5767 27.2478 48.757 27.5169 48.88 27.8132C49.003 28.1095 49.0664 28.4271 49.0664 28.7479C49.0664 29.0687 49.003 29.3864 48.88 29.6827C48.757 29.979 48.5767 30.248 48.3494 30.4745Z" fill="black"/>
</svg>
