<svg width="109" height="109" viewBox="0 0 109 109" fill="none" xmlns="http://www.w3.org/2000/svg">
<path d="M82.6585 49.6885V69.9884C82.6666 70.562 82.5076 71.1256 82.2008 71.6103C81.894 72.0951 81.4527 72.48 80.9308 72.7181L60.4063 81.7538C57.8764 82.8789 55.1205 83.4035 52.3541 83.2867C49.5878 83.1698 46.886 82.4145 44.46 81.08L29.7231 72.9945C29.2519 72.7369 28.8588 72.357 28.5852 71.8949C28.3116 71.4328 28.1676 70.9055 28.1682 70.3685V50.2586" stroke="black" stroke-width="2" stroke-linecap="round"/>
<path d="M50.1965 24.1535L14.9697 40.8427C14.7175 40.964 14.5048 41.154 14.3558 41.3909C14.2069 41.6277 14.1279 41.9018 14.1279 42.1816C14.1279 42.4614 14.2069 42.7355 14.3558 42.9724C14.5048 43.2093 14.7175 43.3993 14.9697 43.5206L49.0736 60.7971C50.7277 61.606 52.5448 62.0265 54.3861 62.0265C56.2275 62.0265 58.0445 61.606 59.6987 60.7971L94.7355 43.8143C94.9876 43.693 95.2004 43.503 95.3493 43.2661C95.4982 43.0292 95.5772 42.7551 95.5772 42.4753C95.5772 42.1955 95.4982 41.9214 95.3493 41.6846C95.2004 41.4477 94.9876 41.2577 94.7355 41.1364L60.6489 24.2572C59.0286 23.4483 57.2455 23.0185 55.4347 23.0006C53.6238 22.9826 51.8325 23.3769 50.1965 24.1535Z" stroke="black" stroke-width="2" stroke-linecap="round"/>
<path d="M54.8265 42.5356L17.3882 44.7643L17.9065 66.0145" stroke="black" stroke-width="2" stroke-linecap="round"/>
<path d="M17.9589 75.4648C20.3729 75.4648 22.3298 73.5079 22.3298 71.0939C22.3298 68.6798 20.3729 66.7229 17.9589 66.7229C15.5448 66.7229 13.5879 68.6798 13.5879 71.0939C13.5879 73.5079 15.5448 75.4648 17.9589 75.4648Z" stroke="black" stroke-width="2" stroke-linecap="round"/>
<path d="M19.4614 75.1885L22.9167 86.0209H13L16.5071 75.1885" stroke="black" stroke-width="2" stroke-linecap="round"/>
</svg>
