<svg width="800" height="800" viewBox="0 0 800 800" fill="none" xmlns="http://www.w3.org/2000/svg">
<path d="M675 275C675 123.363 551.637 0 400 0C248.363 0 125 123.363 125 275C125 360.2 163.963 436.5 225 486.975V775C225 784.475 230.35 793.125 238.812 797.363C242.35 799.138 246.175 800 249.975 800C255.3 800 260.575 798.3 265 795L400 693.75L535 795C539.425 798.312 544.688 800 550 800C553.812 800 557.637 799.138 561.188 797.363C569.65 793.125 575 784.475 575 775V486.975C636.037 436.5 675 360.2 675 275ZM250 775V505.312C258.062 510.575 266.4 515.425 275 519.825V756.25L250 775ZM400 662.5L300 737.5V531.088C331.012 543.25 364.725 550 400 550C435.275 550 468.988 543.25 500 531.088V737.5L400 662.5ZM550 775L525 756.25V519.825C533.6 515.412 541.938 510.575 550 505.312V775ZM400 525C262.15 525 150 412.85 150 275C150 137.15 262.15 25 400 25C537.85 25 650 137.15 650 275C650 412.85 537.85 525 400 525Z" fill="black"/>
<path d="M400 50C275.937 50 175 150.937 175 275C175 399.063 275.937 500 400 500C524.063 500 625 399.063 625 275C625 150.937 524.063 50 400 50ZM400 475C289.725 475 200 385.275 200 275C200 164.725 289.725 75 400 75C510.275 75 600 164.725 600 275C600 385.275 510.275 475 400 475Z" fill="black"/>
<path d="M489.338 242.012L435.475 233.787L411.275 182.25C409.213 177.85 404.8 175.062 399.963 175.062C395.125 175.062 390.713 177.862 388.65 182.25L364.45 233.787L310.588 242.012C305.963 242.725 302.113 245.95 300.625 250.4C299.138 254.85 300.263 259.738 303.525 263.1L342.85 303.437L333.538 360.488C332.763 365.213 334.775 369.963 338.675 372.725C342.575 375.488 347.738 375.762 351.938 373.45L399.95 346.9L447.963 373.45C449.875 374.487 451.963 375 454.038 375C456.563 375 459.088 374.225 461.238 372.712C465.138 369.95 467.15 365.2 466.375 360.475L457.063 303.425L496.388 263.088C499.663 259.725 500.788 254.838 499.288 250.388C497.788 245.938 493.975 242.725 489.338 242.012ZM434.763 290.488C431.988 293.338 430.738 297.312 431.375 301.225L437.563 339.088L406.038 321.65C404.15 320.613 402.075 320.088 399.988 320.088C397.9 320.088 395.825 320.613 393.938 321.65L362.413 339.088L368.6 301.225C369.238 297.312 367.975 293.325 365.213 290.488L338.45 263.062L374.863 257.5C378.975 256.875 382.513 254.238 384.288 250.463L400 216.987L415.713 250.463C417.488 254.25 421.025 256.888 425.138 257.5L461.55 263.062L434.763 290.488Z" fill="black"/>
</svg>
